<svg version="1.2" xmlns="http://www.w3.org/2000/svg" viewBox="0 0 800 800" width="800" height="800">
	<title>discord</title>
	<style>
		.s0 { fill: #4b2501 } 
	</style>
	<path class="s0" d="m629.8 144.8c-45.9-21-94.6-36.3-145.4-44.8-6.4 11-13.5 26-18.5 37.7q-81.1-11.7-161.1 0c-5-11.7-12.4-26.7-18.5-37.7-51.2 8.5-99.9 23.8-145.4 44.8-92.1 135.8-117 268.4-104.6 399.3 61.2 44.4 120.2 71.5 178.2 89.2 14.2-19.2 27-39.8 38-61.5-20.9-7.8-40.9-17.4-60.1-28.8 5-3.5 10-7.4 14.6-11.4 115.9 53 241.5 53 356 0 4.9 4 9.6 7.9 14.5 11.4-19.2 11.4-39.1 21-60 28.8 11 21.7 23.8 42.3 38 61.5 58-17.7 117.3-44.8 178.2-89.2 15.3-151.5-24.2-283-103.9-399.3zm-361.3 318.6c-34.8 0-63.3-31.7-63.3-70.4 0-38.8 27.8-70.4 63.3-70.4 35.2 0 64 31.6 63.3 70.4 0 38.7-28.1 70.4-63.3 70.4zm233.7 0c-34.9 0-63.4-31.7-63.4-70.4 0-38.8 27.8-70.4 63.4-70.4 35.2 0 64 31.6 63.3 70.4 0 38.7-27.8 70.4-63.3 70.4z"/>
</svg>