<svg version="1.2" xmlns="http://www.w3.org/2000/svg" viewBox="0 0 800 800" width="800" height="800">
	<title>email</title>
	<style>
		.s0 { fill: #4b2501 } 
	</style>
	<path class="s0" d="m733.3 166.7v133.3l-333.3 133.3-333.3-133.3v-133.3c0-4.4 0.8-8.7 2.5-12.8 1.7-4 4.1-7.7 7.2-10.8 3.1-3.1 6.8-5.6 10.8-7.2 4.1-1.7 8.4-2.6 12.8-2.6h600c4.4 0 8.7 0.9 12.8 2.6 4 1.6 7.7 4.1 10.8 7.2 3.1 3.1 5.5 6.8 7.2 10.8 1.7 4.1 2.5 8.4 2.5 12.8zm-666.6 205.1v261.5c0 4.4 0.8 8.7 2.5 12.8 1.7 4 4.1 7.7 7.2 10.8 3.1 3.1 6.8 5.6 10.8 7.2 4.1 1.7 8.4 2.6 12.8 2.6h600c4.4 0 8.7-0.9 12.8-2.6 4-1.6 7.7-4.1 10.8-7.2 3.1-3.1 5.5-6.8 7.2-10.8 1.7-4.1 2.5-8.4 2.5-12.8v-261.5l-333.3 133.3z"/>
</svg>